<mxfile host="Electron" modified="2024-02-07T15:50:51.309Z" agent="Mozilla/5.0 (Windows NT 10.0; Win64; x64) AppleWebKit/537.36 (KHTML, like Gecko) draw.io/23.0.2 Chrome/120.0.6099.109 Electron/28.1.0 Safari/537.36" etag="0TmuYmtz_0eTqzPvOC7d" version="23.0.2" type="device">
  <diagram name="Страница — 1" id="krCHeY038zdcny_7Wztb">
    <mxGraphModel dx="1518" dy="780" grid="1" gridSize="10" guides="1" tooltips="1" connect="1" arrows="1" fold="1" page="1" pageScale="1" pageWidth="827" pageHeight="1169" math="0" shadow="0">
      <root>
        <mxCell id="0" />
        <mxCell id="1" parent="0" />
        <mxCell id="vfDCYdOBtoVgsNpqTwvj-1" value="int f(int a[100][100], int line, int column, int m){" style="shape=process;whiteSpace=wrap;html=1;backgroundOutline=1;" vertex="1" parent="1">
          <mxGeometry x="500" y="20" width="240" height="60" as="geometry" />
        </mxCell>
        <mxCell id="vfDCYdOBtoVgsNpqTwvj-2" value="" style="endArrow=classic;html=1;rounded=0;exitX=0.5;exitY=1;exitDx=0;exitDy=0;" edge="1" parent="1" source="vfDCYdOBtoVgsNpqTwvj-1" target="vfDCYdOBtoVgsNpqTwvj-3">
          <mxGeometry width="50" height="50" relative="1" as="geometry">
            <mxPoint x="390" y="340" as="sourcePoint" />
            <mxPoint x="620" y="140" as="targetPoint" />
          </mxGeometry>
        </mxCell>
        <mxCell id="vfDCYdOBtoVgsNpqTwvj-3" value="int s = 0;" style="rounded=0;whiteSpace=wrap;html=1;" vertex="1" parent="1">
          <mxGeometry x="560" y="120" width="120" height="30" as="geometry" />
        </mxCell>
        <mxCell id="vfDCYdOBtoVgsNpqTwvj-4" value="" style="endArrow=classic;html=1;rounded=0;exitX=0.5;exitY=1;exitDx=0;exitDy=0;" edge="1" parent="1" source="vfDCYdOBtoVgsNpqTwvj-3" target="vfDCYdOBtoVgsNpqTwvj-5">
          <mxGeometry width="50" height="50" relative="1" as="geometry">
            <mxPoint x="390" y="340" as="sourcePoint" />
            <mxPoint x="620" y="190" as="targetPoint" />
          </mxGeometry>
        </mxCell>
        <mxCell id="vfDCYdOBtoVgsNpqTwvj-5" value="for (int i = 0; i &amp;lt; m; i++)" style="shape=hexagon;perimeter=hexagonPerimeter2;whiteSpace=wrap;html=1;fixedSize=1;" vertex="1" parent="1">
          <mxGeometry x="530" y="180" width="180" height="40" as="geometry" />
        </mxCell>
        <mxCell id="vfDCYdOBtoVgsNpqTwvj-6" value="" style="endArrow=classic;html=1;rounded=0;exitX=0.5;exitY=1;exitDx=0;exitDy=0;" edge="1" parent="1" source="vfDCYdOBtoVgsNpqTwvj-5">
          <mxGeometry width="50" height="50" relative="1" as="geometry">
            <mxPoint x="390" y="340" as="sourcePoint" />
            <mxPoint x="620" y="250" as="targetPoint" />
          </mxGeometry>
        </mxCell>
        <mxCell id="vfDCYdOBtoVgsNpqTwvj-8" value="for (int j = 0; j &lt; m; j++)" style="shape=hexagon;perimeter=hexagonPerimeter2;whiteSpace=wrap;html=1;fixedSize=1;" vertex="1" parent="1">
          <mxGeometry x="530" y="250" width="180" height="40" as="geometry" />
        </mxCell>
        <mxCell id="vfDCYdOBtoVgsNpqTwvj-9" value="" style="endArrow=classic;html=1;rounded=0;exitX=0.5;exitY=1;exitDx=0;exitDy=0;" edge="1" parent="1" source="vfDCYdOBtoVgsNpqTwvj-8" target="vfDCYdOBtoVgsNpqTwvj-10">
          <mxGeometry width="50" height="50" relative="1" as="geometry">
            <mxPoint x="390" y="340" as="sourcePoint" />
            <mxPoint x="620" y="330" as="targetPoint" />
          </mxGeometry>
        </mxCell>
        <mxCell id="vfDCYdOBtoVgsNpqTwvj-10" value="if ((i &amp;gt;= 1) &amp;amp;&amp;amp; (j &amp;gt;= 0) &amp;amp;&amp;amp; (i - j &amp;gt; 0)){" style="rhombus;whiteSpace=wrap;html=1;" vertex="1" parent="1">
          <mxGeometry x="500" y="310" width="240" height="70" as="geometry" />
        </mxCell>
        <mxCell id="vfDCYdOBtoVgsNpqTwvj-12" value="s += a[i][j];" style="rounded=0;whiteSpace=wrap;html=1;" vertex="1" parent="1">
          <mxGeometry x="380" y="400" width="120" height="30" as="geometry" />
        </mxCell>
        <mxCell id="vfDCYdOBtoVgsNpqTwvj-14" value="" style="endArrow=none;html=1;rounded=0;exitX=0;exitY=0.5;exitDx=0;exitDy=0;" edge="1" parent="1" source="vfDCYdOBtoVgsNpqTwvj-10">
          <mxGeometry width="50" height="50" relative="1" as="geometry">
            <mxPoint x="390" y="340" as="sourcePoint" />
            <mxPoint x="440" y="345" as="targetPoint" />
          </mxGeometry>
        </mxCell>
        <mxCell id="vfDCYdOBtoVgsNpqTwvj-15" value="" style="endArrow=classic;html=1;rounded=0;entryX=0.5;entryY=0;entryDx=0;entryDy=0;" edge="1" parent="1" target="vfDCYdOBtoVgsNpqTwvj-12">
          <mxGeometry width="50" height="50" relative="1" as="geometry">
            <mxPoint x="440" y="345" as="sourcePoint" />
            <mxPoint x="440" y="295" as="targetPoint" />
          </mxGeometry>
        </mxCell>
        <mxCell id="vfDCYdOBtoVgsNpqTwvj-16" value="" style="endArrow=none;html=1;rounded=0;exitX=0.5;exitY=1;exitDx=0;exitDy=0;" edge="1" parent="1" source="vfDCYdOBtoVgsNpqTwvj-12">
          <mxGeometry width="50" height="50" relative="1" as="geometry">
            <mxPoint x="390" y="340" as="sourcePoint" />
            <mxPoint x="440" y="480" as="targetPoint" />
          </mxGeometry>
        </mxCell>
        <mxCell id="vfDCYdOBtoVgsNpqTwvj-17" value="" style="endArrow=none;html=1;rounded=0;exitX=1;exitY=0.5;exitDx=0;exitDy=0;" edge="1" parent="1" source="vfDCYdOBtoVgsNpqTwvj-10">
          <mxGeometry width="50" height="50" relative="1" as="geometry">
            <mxPoint x="390" y="340" as="sourcePoint" />
            <mxPoint x="800" y="345" as="targetPoint" />
          </mxGeometry>
        </mxCell>
        <mxCell id="vfDCYdOBtoVgsNpqTwvj-18" value="" style="endArrow=none;html=1;rounded=0;" edge="1" parent="1">
          <mxGeometry width="50" height="50" relative="1" as="geometry">
            <mxPoint x="800" y="345" as="sourcePoint" />
            <mxPoint x="800" y="480" as="targetPoint" />
          </mxGeometry>
        </mxCell>
        <mxCell id="vfDCYdOBtoVgsNpqTwvj-19" value="" style="endArrow=classic;html=1;rounded=0;" edge="1" parent="1">
          <mxGeometry width="50" height="50" relative="1" as="geometry">
            <mxPoint x="440" y="480" as="sourcePoint" />
            <mxPoint x="620" y="480" as="targetPoint" />
          </mxGeometry>
        </mxCell>
        <mxCell id="vfDCYdOBtoVgsNpqTwvj-20" value="" style="endArrow=classic;html=1;rounded=0;" edge="1" parent="1">
          <mxGeometry width="50" height="50" relative="1" as="geometry">
            <mxPoint x="800" y="480" as="sourcePoint" />
            <mxPoint x="620" y="480" as="targetPoint" />
          </mxGeometry>
        </mxCell>
        <mxCell id="vfDCYdOBtoVgsNpqTwvj-21" value="" style="endArrow=none;html=1;rounded=0;" edge="1" parent="1">
          <mxGeometry width="50" height="50" relative="1" as="geometry">
            <mxPoint x="620" y="480" as="sourcePoint" />
            <mxPoint x="620" y="540" as="targetPoint" />
          </mxGeometry>
        </mxCell>
        <mxCell id="vfDCYdOBtoVgsNpqTwvj-22" value="" style="endArrow=none;html=1;rounded=0;" edge="1" parent="1">
          <mxGeometry width="50" height="50" relative="1" as="geometry">
            <mxPoint x="620" y="540" as="sourcePoint" />
            <mxPoint x="350" y="540" as="targetPoint" />
          </mxGeometry>
        </mxCell>
        <mxCell id="vfDCYdOBtoVgsNpqTwvj-23" value="" style="endArrow=none;html=1;rounded=0;" edge="1" parent="1">
          <mxGeometry width="50" height="50" relative="1" as="geometry">
            <mxPoint x="350" y="540" as="sourcePoint" />
            <mxPoint x="350" y="270" as="targetPoint" />
          </mxGeometry>
        </mxCell>
        <mxCell id="vfDCYdOBtoVgsNpqTwvj-24" value="" style="endArrow=classic;html=1;rounded=0;entryX=0;entryY=0.5;entryDx=0;entryDy=0;" edge="1" parent="1" target="vfDCYdOBtoVgsNpqTwvj-8">
          <mxGeometry width="50" height="50" relative="1" as="geometry">
            <mxPoint x="350" y="270" as="sourcePoint" />
            <mxPoint x="440" y="350" as="targetPoint" />
          </mxGeometry>
        </mxCell>
        <mxCell id="vfDCYdOBtoVgsNpqTwvj-25" value="" style="endArrow=none;html=1;rounded=0;exitX=1;exitY=0.5;exitDx=0;exitDy=0;" edge="1" parent="1" source="vfDCYdOBtoVgsNpqTwvj-8">
          <mxGeometry width="50" height="50" relative="1" as="geometry">
            <mxPoint x="390" y="400" as="sourcePoint" />
            <mxPoint x="840" y="270" as="targetPoint" />
          </mxGeometry>
        </mxCell>
        <mxCell id="vfDCYdOBtoVgsNpqTwvj-26" value="" style="endArrow=none;html=1;rounded=0;" edge="1" parent="1">
          <mxGeometry width="50" height="50" relative="1" as="geometry">
            <mxPoint x="840" y="270" as="sourcePoint" />
            <mxPoint x="840" y="600" as="targetPoint" />
          </mxGeometry>
        </mxCell>
        <mxCell id="vfDCYdOBtoVgsNpqTwvj-27" value="" style="endArrow=none;html=1;rounded=0;" edge="1" parent="1">
          <mxGeometry width="50" height="50" relative="1" as="geometry">
            <mxPoint x="840" y="600" as="sourcePoint" />
            <mxPoint x="280" y="600" as="targetPoint" />
          </mxGeometry>
        </mxCell>
        <mxCell id="vfDCYdOBtoVgsNpqTwvj-28" value="" style="endArrow=none;html=1;rounded=0;" edge="1" parent="1">
          <mxGeometry width="50" height="50" relative="1" as="geometry">
            <mxPoint x="280" y="600" as="sourcePoint" />
            <mxPoint x="280" y="200" as="targetPoint" />
          </mxGeometry>
        </mxCell>
        <mxCell id="vfDCYdOBtoVgsNpqTwvj-29" value="" style="endArrow=classic;html=1;rounded=0;entryX=0;entryY=0.5;entryDx=0;entryDy=0;" edge="1" parent="1" target="vfDCYdOBtoVgsNpqTwvj-5">
          <mxGeometry width="50" height="50" relative="1" as="geometry">
            <mxPoint x="280" y="200" as="sourcePoint" />
            <mxPoint x="440" y="350" as="targetPoint" />
          </mxGeometry>
        </mxCell>
        <mxCell id="vfDCYdOBtoVgsNpqTwvj-30" value="" style="endArrow=none;html=1;rounded=0;exitX=1;exitY=0.5;exitDx=0;exitDy=0;" edge="1" parent="1" source="vfDCYdOBtoVgsNpqTwvj-5">
          <mxGeometry width="50" height="50" relative="1" as="geometry">
            <mxPoint x="390" y="400" as="sourcePoint" />
            <mxPoint x="960" y="200" as="targetPoint" />
          </mxGeometry>
        </mxCell>
        <mxCell id="vfDCYdOBtoVgsNpqTwvj-32" value="" style="endArrow=classic;html=1;rounded=0;" edge="1" parent="1">
          <mxGeometry width="50" height="50" relative="1" as="geometry">
            <mxPoint x="960" y="200" as="sourcePoint" />
            <mxPoint x="960" y="280" as="targetPoint" />
          </mxGeometry>
        </mxCell>
        <mxCell id="vfDCYdOBtoVgsNpqTwvj-33" value="return s;}" style="ellipse;whiteSpace=wrap;html=1;" vertex="1" parent="1">
          <mxGeometry x="900" y="280" width="120" height="50" as="geometry" />
        </mxCell>
        <mxCell id="vfDCYdOBtoVgsNpqTwvj-34" value="1{" style="text;html=1;align=center;verticalAlign=middle;resizable=0;points=[];autosize=1;strokeColor=none;fillColor=none;" vertex="1" parent="1">
          <mxGeometry x="585" y="218" width="30" height="30" as="geometry" />
        </mxCell>
        <mxCell id="vfDCYdOBtoVgsNpqTwvj-35" value="1{" style="text;html=1;align=center;verticalAlign=middle;resizable=0;points=[];autosize=1;strokeColor=none;fillColor=none;" vertex="1" parent="1">
          <mxGeometry x="585" y="288" width="30" height="30" as="geometry" />
        </mxCell>
        <mxCell id="vfDCYdOBtoVgsNpqTwvj-36" value="}" style="text;html=1;align=center;verticalAlign=middle;resizable=0;points=[];autosize=1;strokeColor=none;fillColor=none;" vertex="1" parent="1">
          <mxGeometry x="615" y="478" width="30" height="30" as="geometry" />
        </mxCell>
        <mxCell id="vfDCYdOBtoVgsNpqTwvj-37" value="1" style="text;html=1;align=center;verticalAlign=middle;resizable=0;points=[];autosize=1;strokeColor=none;fillColor=none;" vertex="1" parent="1">
          <mxGeometry x="460" y="318" width="30" height="30" as="geometry" />
        </mxCell>
        <mxCell id="vfDCYdOBtoVgsNpqTwvj-39" value="0" style="text;html=1;align=center;verticalAlign=middle;resizable=0;points=[];autosize=1;strokeColor=none;fillColor=none;" vertex="1" parent="1">
          <mxGeometry x="740" y="318" width="30" height="30" as="geometry" />
        </mxCell>
        <mxCell id="vfDCYdOBtoVgsNpqTwvj-40" value="}}" style="text;html=1;align=center;verticalAlign=middle;resizable=0;points=[];autosize=1;strokeColor=none;fillColor=none;" vertex="1" parent="1">
          <mxGeometry x="835" y="578" width="30" height="30" as="geometry" />
        </mxCell>
        <mxCell id="vfDCYdOBtoVgsNpqTwvj-41" value="Начало" style="ellipse;whiteSpace=wrap;html=1;" vertex="1" parent="1">
          <mxGeometry x="1310" y="30" width="120" height="50" as="geometry" />
        </mxCell>
        <mxCell id="vfDCYdOBtoVgsNpqTwvj-43" value="" style="endArrow=none;dashed=1;html=1;rounded=0;" edge="1" parent="1">
          <mxGeometry width="50" height="50" relative="1" as="geometry">
            <mxPoint x="1370" y="150" as="sourcePoint" />
            <mxPoint x="1470" y="150" as="targetPoint" />
          </mxGeometry>
        </mxCell>
        <mxCell id="vfDCYdOBtoVgsNpqTwvj-44" value="" style="endArrow=none;html=1;rounded=0;" edge="1" parent="1">
          <mxGeometry width="50" height="50" relative="1" as="geometry">
            <mxPoint x="1470" y="210" as="sourcePoint" />
            <mxPoint x="1470" y="90" as="targetPoint" />
          </mxGeometry>
        </mxCell>
        <mxCell id="vfDCYdOBtoVgsNpqTwvj-45" value="&lt;div&gt;#include &amp;lt;iostream&amp;gt;&amp;nbsp;&lt;/div&gt;&lt;div&gt;using namespace std;&lt;/div&gt;&lt;div&gt;&lt;span style=&quot;background-color: initial;&quot;&gt;int main(){&lt;/span&gt;&lt;/div&gt;&lt;div&gt;&lt;span style=&quot;background-color: initial;&quot;&gt;setlocale(LC_ALL, &quot;RU&quot;);&lt;br&gt;&lt;/span&gt;&lt;/div&gt;&lt;div&gt;&lt;span style=&quot;background-color: initial;&quot;&gt;int m,n;&lt;br&gt;&lt;/span&gt;&lt;/div&gt;&lt;div&gt;&lt;span style=&quot;background-color: initial;&quot;&gt;int a[100][100];&lt;br&gt;&lt;/span&gt;&lt;/div&gt;&lt;div&gt;&lt;span style=&quot;background-color: initial;&quot;&gt;int max = 0;&lt;br&gt;&lt;/span&gt;&lt;/div&gt;" style="text;html=1;strokeColor=none;fillColor=none;align=left;verticalAlign=middle;whiteSpace=wrap;rounded=0;" vertex="1" parent="1">
          <mxGeometry x="1470" y="130" width="150" height="30" as="geometry" />
        </mxCell>
        <mxCell id="vfDCYdOBtoVgsNpqTwvj-46" value="" style="endArrow=none;html=1;rounded=0;" edge="1" parent="1">
          <mxGeometry width="50" height="50" relative="1" as="geometry">
            <mxPoint x="1470" y="90" as="sourcePoint" />
            <mxPoint x="1490" y="90" as="targetPoint" />
          </mxGeometry>
        </mxCell>
        <mxCell id="vfDCYdOBtoVgsNpqTwvj-47" value="" style="endArrow=none;html=1;rounded=0;" edge="1" parent="1">
          <mxGeometry width="50" height="50" relative="1" as="geometry">
            <mxPoint x="1470" y="210" as="sourcePoint" />
            <mxPoint x="1490" y="210" as="targetPoint" />
          </mxGeometry>
        </mxCell>
        <mxCell id="vfDCYdOBtoVgsNpqTwvj-48" value="" style="endArrow=classic;html=1;rounded=0;exitX=0.5;exitY=1;exitDx=0;exitDy=0;" edge="1" parent="1" source="vfDCYdOBtoVgsNpqTwvj-41" target="vfDCYdOBtoVgsNpqTwvj-49">
          <mxGeometry width="50" height="50" relative="1" as="geometry">
            <mxPoint x="1260" y="210" as="sourcePoint" />
            <mxPoint x="1370" y="240" as="targetPoint" />
          </mxGeometry>
        </mxCell>
        <mxCell id="vfDCYdOBtoVgsNpqTwvj-49" value="cout &amp;lt;&amp;lt; &quot;Введите размерность матрицы&quot; &amp;lt;&amp;lt; endl;" style="shape=parallelogram;perimeter=parallelogramPerimeter;whiteSpace=wrap;html=1;fixedSize=1;" vertex="1" parent="1">
          <mxGeometry x="1260" y="230" width="220" height="30" as="geometry" />
        </mxCell>
        <mxCell id="vfDCYdOBtoVgsNpqTwvj-50" value="" style="endArrow=classic;html=1;rounded=0;exitX=0.5;exitY=1;exitDx=0;exitDy=0;" edge="1" parent="1" source="vfDCYdOBtoVgsNpqTwvj-49" target="vfDCYdOBtoVgsNpqTwvj-51">
          <mxGeometry width="50" height="50" relative="1" as="geometry">
            <mxPoint x="1260" y="210" as="sourcePoint" />
            <mxPoint x="1370" y="290" as="targetPoint" />
          </mxGeometry>
        </mxCell>
        <mxCell id="vfDCYdOBtoVgsNpqTwvj-51" value="cin &amp;gt;&amp;gt; m;" style="shape=parallelogram;perimeter=parallelogramPerimeter;whiteSpace=wrap;html=1;fixedSize=1;" vertex="1" parent="1">
          <mxGeometry x="1310" y="303" width="120" height="27" as="geometry" />
        </mxCell>
        <mxCell id="vfDCYdOBtoVgsNpqTwvj-52" value="" style="endArrow=classic;html=1;rounded=0;exitX=0.5;exitY=1;exitDx=0;exitDy=0;" edge="1" parent="1" source="vfDCYdOBtoVgsNpqTwvj-51">
          <mxGeometry width="50" height="50" relative="1" as="geometry">
            <mxPoint x="1260" y="210" as="sourcePoint" />
            <mxPoint x="1370" y="360" as="targetPoint" />
          </mxGeometry>
        </mxCell>
        <mxCell id="vfDCYdOBtoVgsNpqTwvj-53" value="cout &amp;lt;&amp;lt; &quot;Введите количество матриц&quot; &amp;lt;&amp;lt; endl;" style="shape=parallelogram;perimeter=parallelogramPerimeter;whiteSpace=wrap;html=1;fixedSize=1;" vertex="1" parent="1">
          <mxGeometry x="1270" y="360" width="200" height="30" as="geometry" />
        </mxCell>
        <mxCell id="vfDCYdOBtoVgsNpqTwvj-54" value="" style="endArrow=classic;html=1;rounded=0;exitX=0.5;exitY=1;exitDx=0;exitDy=0;" edge="1" parent="1" source="vfDCYdOBtoVgsNpqTwvj-53" target="vfDCYdOBtoVgsNpqTwvj-55">
          <mxGeometry width="50" height="50" relative="1" as="geometry">
            <mxPoint x="1260" y="510" as="sourcePoint" />
            <mxPoint x="1370" y="430" as="targetPoint" />
          </mxGeometry>
        </mxCell>
        <mxCell id="vfDCYdOBtoVgsNpqTwvj-55" value="cin &amp;gt;&amp;gt; n;" style="shape=parallelogram;perimeter=parallelogramPerimeter;whiteSpace=wrap;html=1;fixedSize=1;" vertex="1" parent="1">
          <mxGeometry x="1310" y="418" width="120" height="32" as="geometry" />
        </mxCell>
        <mxCell id="vfDCYdOBtoVgsNpqTwvj-56" value="&amp;nbsp;while (n &amp;gt; 0){" style="rhombus;whiteSpace=wrap;html=1;" vertex="1" parent="1">
          <mxGeometry x="1270" y="478" width="200" height="52" as="geometry" />
        </mxCell>
        <mxCell id="vfDCYdOBtoVgsNpqTwvj-57" value="" style="endArrow=classic;html=1;rounded=0;exitX=0.5;exitY=1;exitDx=0;exitDy=0;entryX=0.5;entryY=0;entryDx=0;entryDy=0;" edge="1" parent="1" source="vfDCYdOBtoVgsNpqTwvj-55" target="vfDCYdOBtoVgsNpqTwvj-56">
          <mxGeometry width="50" height="50" relative="1" as="geometry">
            <mxPoint x="1260" y="510" as="sourcePoint" />
            <mxPoint x="1310" y="460" as="targetPoint" />
          </mxGeometry>
        </mxCell>
        <mxCell id="vfDCYdOBtoVgsNpqTwvj-58" value="" style="endArrow=classic;html=1;rounded=0;exitX=0.5;exitY=1;exitDx=0;exitDy=0;" edge="1" parent="1" source="vfDCYdOBtoVgsNpqTwvj-56">
          <mxGeometry width="50" height="50" relative="1" as="geometry">
            <mxPoint x="1260" y="510" as="sourcePoint" />
            <mxPoint x="1370" y="560" as="targetPoint" />
          </mxGeometry>
        </mxCell>
        <mxCell id="vfDCYdOBtoVgsNpqTwvj-59" value="cout &amp;lt;&amp;lt; endl;" style="shape=parallelogram;perimeter=parallelogramPerimeter;whiteSpace=wrap;html=1;fixedSize=1;" vertex="1" parent="1">
          <mxGeometry x="1300" y="560" width="140" height="35" as="geometry" />
        </mxCell>
        <mxCell id="vfDCYdOBtoVgsNpqTwvj-60" value="" style="endArrow=classic;html=1;rounded=0;exitX=0.5;exitY=1;exitDx=0;exitDy=0;" edge="1" parent="1" source="vfDCYdOBtoVgsNpqTwvj-59" target="vfDCYdOBtoVgsNpqTwvj-61">
          <mxGeometry width="50" height="50" relative="1" as="geometry">
            <mxPoint x="1260" y="510" as="sourcePoint" />
            <mxPoint x="1370" y="620" as="targetPoint" />
          </mxGeometry>
        </mxCell>
        <mxCell id="vfDCYdOBtoVgsNpqTwvj-61" value="for (int i = 0; i &amp;lt; m; i++)" style="shape=hexagon;perimeter=hexagonPerimeter2;whiteSpace=wrap;html=1;fixedSize=1;" vertex="1" parent="1">
          <mxGeometry x="1280" y="620" width="180" height="30" as="geometry" />
        </mxCell>
        <mxCell id="vfDCYdOBtoVgsNpqTwvj-62" value="" style="endArrow=classic;html=1;rounded=0;exitX=0.5;exitY=1;exitDx=0;exitDy=0;" edge="1" parent="1" source="vfDCYdOBtoVgsNpqTwvj-61" target="vfDCYdOBtoVgsNpqTwvj-63">
          <mxGeometry width="50" height="50" relative="1" as="geometry">
            <mxPoint x="1260" y="510" as="sourcePoint" />
            <mxPoint x="1370" y="690" as="targetPoint" />
          </mxGeometry>
        </mxCell>
        <mxCell id="vfDCYdOBtoVgsNpqTwvj-63" value="for (int j = 0; j &amp;lt; m; j++)" style="shape=hexagon;perimeter=hexagonPerimeter2;whiteSpace=wrap;html=1;fixedSize=1;" vertex="1" parent="1">
          <mxGeometry x="1280" y="680" width="180" height="30" as="geometry" />
        </mxCell>
        <mxCell id="vfDCYdOBtoVgsNpqTwvj-64" value="" style="endArrow=classic;html=1;rounded=0;exitX=0.5;exitY=1;exitDx=0;exitDy=0;" edge="1" parent="1" source="vfDCYdOBtoVgsNpqTwvj-63" target="vfDCYdOBtoVgsNpqTwvj-65">
          <mxGeometry width="50" height="50" relative="1" as="geometry">
            <mxPoint x="1260" y="510" as="sourcePoint" />
            <mxPoint x="1370" y="760" as="targetPoint" />
          </mxGeometry>
        </mxCell>
        <mxCell id="vfDCYdOBtoVgsNpqTwvj-65" value="a[i][j] = rand() % 101 - 50;" style="shape=parallelogram;perimeter=parallelogramPerimeter;whiteSpace=wrap;html=1;fixedSize=1;" vertex="1" parent="1">
          <mxGeometry x="1270" y="740" width="200" height="30" as="geometry" />
        </mxCell>
        <mxCell id="vfDCYdOBtoVgsNpqTwvj-66" value="" style="endArrow=classic;html=1;rounded=0;exitX=0.5;exitY=1;exitDx=0;exitDy=0;" edge="1" parent="1" source="vfDCYdOBtoVgsNpqTwvj-65" target="vfDCYdOBtoVgsNpqTwvj-67">
          <mxGeometry width="50" height="50" relative="1" as="geometry">
            <mxPoint x="1260" y="710" as="sourcePoint" />
            <mxPoint x="1370" y="800" as="targetPoint" />
          </mxGeometry>
        </mxCell>
        <mxCell id="vfDCYdOBtoVgsNpqTwvj-67" value="cout &amp;lt;&amp;lt; a[i][j] &amp;lt;&amp;lt; &quot; &quot;;" style="shape=parallelogram;perimeter=parallelogramPerimeter;whiteSpace=wrap;html=1;fixedSize=1;" vertex="1" parent="1">
          <mxGeometry x="1300" y="800" width="140" height="30" as="geometry" />
        </mxCell>
        <mxCell id="vfDCYdOBtoVgsNpqTwvj-68" value="" style="endArrow=none;html=1;rounded=0;" edge="1" parent="1" source="vfDCYdOBtoVgsNpqTwvj-67">
          <mxGeometry width="50" height="50" relative="1" as="geometry">
            <mxPoint x="1370" y="834" as="sourcePoint" />
            <mxPoint x="1370" y="864" as="targetPoint" />
          </mxGeometry>
        </mxCell>
        <mxCell id="vfDCYdOBtoVgsNpqTwvj-69" value="" style="endArrow=none;html=1;rounded=0;" edge="1" parent="1">
          <mxGeometry width="50" height="50" relative="1" as="geometry">
            <mxPoint x="1370" y="864" as="sourcePoint" />
            <mxPoint x="1240" y="864" as="targetPoint" />
          </mxGeometry>
        </mxCell>
        <mxCell id="vfDCYdOBtoVgsNpqTwvj-70" value="" style="endArrow=none;html=1;rounded=0;" edge="1" parent="1">
          <mxGeometry width="50" height="50" relative="1" as="geometry">
            <mxPoint x="1240" y="864" as="sourcePoint" />
            <mxPoint x="1240" y="694" as="targetPoint" />
          </mxGeometry>
        </mxCell>
        <mxCell id="vfDCYdOBtoVgsNpqTwvj-71" value="" style="endArrow=classic;html=1;rounded=0;entryX=0;entryY=0.5;entryDx=0;entryDy=0;" edge="1" parent="1" target="vfDCYdOBtoVgsNpqTwvj-63">
          <mxGeometry width="50" height="50" relative="1" as="geometry">
            <mxPoint x="1240" y="695" as="sourcePoint" />
            <mxPoint x="1280" y="690" as="targetPoint" />
          </mxGeometry>
        </mxCell>
        <mxCell id="vfDCYdOBtoVgsNpqTwvj-72" value="" style="endArrow=none;html=1;rounded=0;exitX=1;exitY=0.5;exitDx=0;exitDy=0;" edge="1" parent="1" source="vfDCYdOBtoVgsNpqTwvj-63">
          <mxGeometry width="50" height="50" relative="1" as="geometry">
            <mxPoint x="1260" y="710" as="sourcePoint" />
            <mxPoint x="1520" y="695" as="targetPoint" />
          </mxGeometry>
        </mxCell>
        <mxCell id="vfDCYdOBtoVgsNpqTwvj-73" value="" style="endArrow=classic;html=1;rounded=0;" edge="1" parent="1" target="vfDCYdOBtoVgsNpqTwvj-74">
          <mxGeometry width="50" height="50" relative="1" as="geometry">
            <mxPoint x="1520" y="695" as="sourcePoint" />
            <mxPoint x="1520" y="755" as="targetPoint" />
          </mxGeometry>
        </mxCell>
        <mxCell id="vfDCYdOBtoVgsNpqTwvj-74" value="cout &amp;lt;&amp;lt; endl;" style="shape=parallelogram;perimeter=parallelogramPerimeter;whiteSpace=wrap;html=1;fixedSize=1;" vertex="1" parent="1">
          <mxGeometry x="1460" y="770" width="120" height="30" as="geometry" />
        </mxCell>
        <mxCell id="vfDCYdOBtoVgsNpqTwvj-78" value="" style="endArrow=none;html=1;rounded=0;" edge="1" parent="1" source="vfDCYdOBtoVgsNpqTwvj-74">
          <mxGeometry width="50" height="50" relative="1" as="geometry">
            <mxPoint x="1520" y="804" as="sourcePoint" />
            <mxPoint x="1520" y="924" as="targetPoint" />
          </mxGeometry>
        </mxCell>
        <mxCell id="vfDCYdOBtoVgsNpqTwvj-79" value="" style="endArrow=none;html=1;rounded=0;" edge="1" parent="1">
          <mxGeometry width="50" height="50" relative="1" as="geometry">
            <mxPoint x="1520" y="925" as="sourcePoint" />
            <mxPoint x="1200" y="925" as="targetPoint" />
          </mxGeometry>
        </mxCell>
        <mxCell id="vfDCYdOBtoVgsNpqTwvj-80" value="" style="endArrow=none;html=1;rounded=0;" edge="1" parent="1">
          <mxGeometry width="50" height="50" relative="1" as="geometry">
            <mxPoint x="1200" y="925" as="sourcePoint" />
            <mxPoint x="1200" y="635" as="targetPoint" />
          </mxGeometry>
        </mxCell>
        <mxCell id="vfDCYdOBtoVgsNpqTwvj-81" value="" style="endArrow=classic;html=1;rounded=0;entryX=0;entryY=0.5;entryDx=0;entryDy=0;" edge="1" parent="1" target="vfDCYdOBtoVgsNpqTwvj-61">
          <mxGeometry width="50" height="50" relative="1" as="geometry">
            <mxPoint x="1200" y="635" as="sourcePoint" />
            <mxPoint x="1310" y="660" as="targetPoint" />
          </mxGeometry>
        </mxCell>
        <mxCell id="vfDCYdOBtoVgsNpqTwvj-82" value="" style="endArrow=none;html=1;rounded=0;exitX=1;exitY=0.5;exitDx=0;exitDy=0;" edge="1" parent="1" source="vfDCYdOBtoVgsNpqTwvj-61">
          <mxGeometry width="50" height="50" relative="1" as="geometry">
            <mxPoint x="1260" y="710" as="sourcePoint" />
            <mxPoint x="1720" y="635" as="targetPoint" />
          </mxGeometry>
        </mxCell>
        <mxCell id="vfDCYdOBtoVgsNpqTwvj-83" value="" style="endArrow=classic;html=1;rounded=0;entryX=0.5;entryY=0;entryDx=0;entryDy=0;" edge="1" parent="1" target="vfDCYdOBtoVgsNpqTwvj-85">
          <mxGeometry width="50" height="50" relative="1" as="geometry">
            <mxPoint x="1720" y="635" as="sourcePoint" />
            <mxPoint x="1720" y="675" as="targetPoint" />
          </mxGeometry>
        </mxCell>
        <mxCell id="vfDCYdOBtoVgsNpqTwvj-85" value="f(a, n, n, m);" style="shape=process;whiteSpace=wrap;html=1;backgroundOutline=1;" vertex="1" parent="1">
          <mxGeometry x="1660" y="680" width="120" height="40" as="geometry" />
        </mxCell>
        <mxCell id="vfDCYdOBtoVgsNpqTwvj-86" value="" style="endArrow=classic;html=1;rounded=0;exitX=0.5;exitY=1;exitDx=0;exitDy=0;" edge="1" parent="1" source="vfDCYdOBtoVgsNpqTwvj-85" target="vfDCYdOBtoVgsNpqTwvj-87">
          <mxGeometry width="50" height="50" relative="1" as="geometry">
            <mxPoint x="1510" y="710" as="sourcePoint" />
            <mxPoint x="1720" y="740" as="targetPoint" />
          </mxGeometry>
        </mxCell>
        <mxCell id="vfDCYdOBtoVgsNpqTwvj-87" value="n--;" style="rounded=0;whiteSpace=wrap;html=1;" vertex="1" parent="1">
          <mxGeometry x="1690" y="750" width="60" height="30" as="geometry" />
        </mxCell>
        <mxCell id="vfDCYdOBtoVgsNpqTwvj-89" value="" style="endArrow=classic;html=1;rounded=0;exitX=0.5;exitY=1;exitDx=0;exitDy=0;" edge="1" parent="1" source="vfDCYdOBtoVgsNpqTwvj-87" target="vfDCYdOBtoVgsNpqTwvj-90">
          <mxGeometry width="50" height="50" relative="1" as="geometry">
            <mxPoint x="1510" y="710" as="sourcePoint" />
            <mxPoint x="1720" y="810" as="targetPoint" />
          </mxGeometry>
        </mxCell>
        <mxCell id="vfDCYdOBtoVgsNpqTwvj-90" value="cout &amp;lt;&amp;lt; f(a, n, n, m);" style="shape=parallelogram;perimeter=parallelogramPerimeter;whiteSpace=wrap;html=1;fixedSize=1;" vertex="1" parent="1">
          <mxGeometry x="1660" y="810" width="120" height="30" as="geometry" />
        </mxCell>
        <mxCell id="vfDCYdOBtoVgsNpqTwvj-91" value="" style="endArrow=classic;html=1;rounded=0;exitX=0.5;exitY=1;exitDx=0;exitDy=0;" edge="1" parent="1" source="vfDCYdOBtoVgsNpqTwvj-90" target="vfDCYdOBtoVgsNpqTwvj-92">
          <mxGeometry width="50" height="50" relative="1" as="geometry">
            <mxPoint x="1510" y="810" as="sourcePoint" />
            <mxPoint x="1720" y="880" as="targetPoint" />
          </mxGeometry>
        </mxCell>
        <mxCell id="vfDCYdOBtoVgsNpqTwvj-92" value="int ss = f(a, n, n, m);" style="rounded=0;whiteSpace=wrap;html=1;" vertex="1" parent="1">
          <mxGeometry x="1660" y="870" width="120" height="30" as="geometry" />
        </mxCell>
        <mxCell id="vfDCYdOBtoVgsNpqTwvj-93" value="" style="endArrow=classic;html=1;rounded=0;exitX=0.5;exitY=1;exitDx=0;exitDy=0;" edge="1" parent="1" source="vfDCYdOBtoVgsNpqTwvj-92" target="vfDCYdOBtoVgsNpqTwvj-94">
          <mxGeometry width="50" height="50" relative="1" as="geometry">
            <mxPoint x="1510" y="810" as="sourcePoint" />
            <mxPoint x="1720" y="940" as="targetPoint" />
          </mxGeometry>
        </mxCell>
        <mxCell id="vfDCYdOBtoVgsNpqTwvj-94" value="if (max &amp;lt; ss){" style="rhombus;whiteSpace=wrap;html=1;" vertex="1" parent="1">
          <mxGeometry x="1650" y="930" width="140" height="50" as="geometry" />
        </mxCell>
        <mxCell id="vfDCYdOBtoVgsNpqTwvj-95" value="" style="endArrow=none;html=1;rounded=0;exitX=0;exitY=0.5;exitDx=0;exitDy=0;" edge="1" parent="1" source="vfDCYdOBtoVgsNpqTwvj-94">
          <mxGeometry width="50" height="50" relative="1" as="geometry">
            <mxPoint x="1510" y="1010" as="sourcePoint" />
            <mxPoint x="1600" y="955" as="targetPoint" />
          </mxGeometry>
        </mxCell>
        <mxCell id="vfDCYdOBtoVgsNpqTwvj-96" value="" style="endArrow=classic;html=1;rounded=0;" edge="1" parent="1" target="vfDCYdOBtoVgsNpqTwvj-97">
          <mxGeometry width="50" height="50" relative="1" as="geometry">
            <mxPoint x="1601" y="955" as="sourcePoint" />
            <mxPoint x="1601" y="1005" as="targetPoint" />
          </mxGeometry>
        </mxCell>
        <mxCell id="vfDCYdOBtoVgsNpqTwvj-97" value="max = ss;" style="rounded=0;whiteSpace=wrap;html=1;" vertex="1" parent="1">
          <mxGeometry x="1550" y="1000" width="100" height="30" as="geometry" />
        </mxCell>
        <mxCell id="vfDCYdOBtoVgsNpqTwvj-98" value="" style="endArrow=none;html=1;rounded=0;exitX=1;exitY=0.5;exitDx=0;exitDy=0;" edge="1" parent="1" source="vfDCYdOBtoVgsNpqTwvj-94">
          <mxGeometry width="50" height="50" relative="1" as="geometry">
            <mxPoint x="1510" y="1010" as="sourcePoint" />
            <mxPoint x="1850" y="955" as="targetPoint" />
          </mxGeometry>
        </mxCell>
        <mxCell id="vfDCYdOBtoVgsNpqTwvj-99" value="" style="endArrow=none;html=1;rounded=0;exitX=0.5;exitY=1;exitDx=0;exitDy=0;" edge="1" parent="1" source="vfDCYdOBtoVgsNpqTwvj-97">
          <mxGeometry width="50" height="50" relative="1" as="geometry">
            <mxPoint x="1510" y="1010" as="sourcePoint" />
            <mxPoint x="1600" y="1060" as="targetPoint" />
          </mxGeometry>
        </mxCell>
        <mxCell id="vfDCYdOBtoVgsNpqTwvj-100" value="" style="endArrow=none;html=1;rounded=0;" edge="1" parent="1">
          <mxGeometry width="50" height="50" relative="1" as="geometry">
            <mxPoint x="1850" y="955" as="sourcePoint" />
            <mxPoint x="1850" y="1060" as="targetPoint" />
          </mxGeometry>
        </mxCell>
        <mxCell id="vfDCYdOBtoVgsNpqTwvj-101" value="" style="endArrow=classic;html=1;rounded=0;" edge="1" parent="1">
          <mxGeometry width="50" height="50" relative="1" as="geometry">
            <mxPoint x="1600" y="1060" as="sourcePoint" />
            <mxPoint x="1720" y="1060" as="targetPoint" />
          </mxGeometry>
        </mxCell>
        <mxCell id="vfDCYdOBtoVgsNpqTwvj-102" value="" style="endArrow=classic;html=1;rounded=0;" edge="1" parent="1">
          <mxGeometry width="50" height="50" relative="1" as="geometry">
            <mxPoint x="1850" y="1060" as="sourcePoint" />
            <mxPoint x="1720" y="1060" as="targetPoint" />
          </mxGeometry>
        </mxCell>
        <mxCell id="vfDCYdOBtoVgsNpqTwvj-103" value="" style="endArrow=none;html=1;rounded=0;" edge="1" parent="1">
          <mxGeometry width="50" height="50" relative="1" as="geometry">
            <mxPoint x="1720" y="1060" as="sourcePoint" />
            <mxPoint x="1720" y="1100" as="targetPoint" />
          </mxGeometry>
        </mxCell>
        <mxCell id="vfDCYdOBtoVgsNpqTwvj-104" value="" style="endArrow=none;html=1;rounded=0;" edge="1" parent="1">
          <mxGeometry width="50" height="50" relative="1" as="geometry">
            <mxPoint x="1720" y="1100" as="sourcePoint" />
            <mxPoint x="1120" y="1100" as="targetPoint" />
          </mxGeometry>
        </mxCell>
        <mxCell id="vfDCYdOBtoVgsNpqTwvj-105" value="" style="endArrow=none;html=1;rounded=0;" edge="1" parent="1">
          <mxGeometry width="50" height="50" relative="1" as="geometry">
            <mxPoint x="1120" y="1100" as="sourcePoint" />
            <mxPoint x="1120" y="470" as="targetPoint" />
          </mxGeometry>
        </mxCell>
        <mxCell id="vfDCYdOBtoVgsNpqTwvj-106" value="" style="endArrow=classic;html=1;rounded=0;" edge="1" parent="1">
          <mxGeometry width="50" height="50" relative="1" as="geometry">
            <mxPoint x="1120" y="470" as="sourcePoint" />
            <mxPoint x="1370" y="470" as="targetPoint" />
          </mxGeometry>
        </mxCell>
        <mxCell id="vfDCYdOBtoVgsNpqTwvj-108" value="" style="endArrow=none;html=1;rounded=0;exitX=1;exitY=0.5;exitDx=0;exitDy=0;" edge="1" parent="1" source="vfDCYdOBtoVgsNpqTwvj-56">
          <mxGeometry width="50" height="50" relative="1" as="geometry">
            <mxPoint x="1510" y="510" as="sourcePoint" />
            <mxPoint x="1880" y="504" as="targetPoint" />
          </mxGeometry>
        </mxCell>
        <mxCell id="vfDCYdOBtoVgsNpqTwvj-109" value="" style="endArrow=classic;html=1;rounded=0;entryX=0.5;entryY=0;entryDx=0;entryDy=0;" edge="1" parent="1" target="vfDCYdOBtoVgsNpqTwvj-110">
          <mxGeometry width="50" height="50" relative="1" as="geometry">
            <mxPoint x="1880" y="503" as="sourcePoint" />
            <mxPoint x="1880" y="573" as="targetPoint" />
          </mxGeometry>
        </mxCell>
        <mxCell id="vfDCYdOBtoVgsNpqTwvj-110" value="cout &amp;lt;&amp;lt; endl;" style="shape=parallelogram;perimeter=parallelogramPerimeter;whiteSpace=wrap;html=1;fixedSize=1;" vertex="1" parent="1">
          <mxGeometry x="1820" y="570" width="120" height="30" as="geometry" />
        </mxCell>
        <mxCell id="vfDCYdOBtoVgsNpqTwvj-112" value="" style="endArrow=classic;html=1;rounded=0;exitX=0.5;exitY=1;exitDx=0;exitDy=0;" edge="1" parent="1" source="vfDCYdOBtoVgsNpqTwvj-110" target="vfDCYdOBtoVgsNpqTwvj-113">
          <mxGeometry width="50" height="50" relative="1" as="geometry">
            <mxPoint x="1510" y="510" as="sourcePoint" />
            <mxPoint x="1880" y="630" as="targetPoint" />
          </mxGeometry>
        </mxCell>
        <mxCell id="vfDCYdOBtoVgsNpqTwvj-113" value="cout &amp;lt;&amp;lt; max;" style="shape=parallelogram;perimeter=parallelogramPerimeter;whiteSpace=wrap;html=1;fixedSize=1;" vertex="1" parent="1">
          <mxGeometry x="1820" y="630" width="120" height="30" as="geometry" />
        </mxCell>
        <mxCell id="vfDCYdOBtoVgsNpqTwvj-114" value="" style="endArrow=classic;html=1;rounded=0;exitX=0.5;exitY=1;exitDx=0;exitDy=0;" edge="1" parent="1" source="vfDCYdOBtoVgsNpqTwvj-113" target="vfDCYdOBtoVgsNpqTwvj-115">
          <mxGeometry width="50" height="50" relative="1" as="geometry">
            <mxPoint x="1510" y="510" as="sourcePoint" />
            <mxPoint x="1880" y="680" as="targetPoint" />
          </mxGeometry>
        </mxCell>
        <mxCell id="vfDCYdOBtoVgsNpqTwvj-115" value="return 0;}" style="ellipse;whiteSpace=wrap;html=1;" vertex="1" parent="1">
          <mxGeometry x="1820" y="690" width="120" height="40" as="geometry" />
        </mxCell>
        <mxCell id="vfDCYdOBtoVgsNpqTwvj-116" value="1{" style="text;html=1;align=center;verticalAlign=middle;resizable=0;points=[];autosize=1;strokeColor=none;fillColor=none;" vertex="1" parent="1">
          <mxGeometry x="1345" y="528" width="30" height="30" as="geometry" />
        </mxCell>
        <mxCell id="vfDCYdOBtoVgsNpqTwvj-117" value="0" style="text;html=1;align=center;verticalAlign=middle;resizable=0;points=[];autosize=1;strokeColor=none;fillColor=none;" vertex="1" parent="1">
          <mxGeometry x="1475" y="468" width="30" height="30" as="geometry" />
        </mxCell>
        <mxCell id="vfDCYdOBtoVgsNpqTwvj-118" value="1{" style="text;html=1;align=center;verticalAlign=middle;resizable=0;points=[];autosize=1;strokeColor=none;fillColor=none;" vertex="1" parent="1">
          <mxGeometry x="1340" y="650" width="30" height="30" as="geometry" />
        </mxCell>
        <mxCell id="vfDCYdOBtoVgsNpqTwvj-119" value="1{" style="text;html=1;align=center;verticalAlign=middle;resizable=0;points=[];autosize=1;strokeColor=none;fillColor=none;" vertex="1" parent="1">
          <mxGeometry x="1335" y="708" width="30" height="30" as="geometry" />
        </mxCell>
        <mxCell id="vfDCYdOBtoVgsNpqTwvj-120" value="0" style="text;html=1;align=center;verticalAlign=middle;resizable=0;points=[];autosize=1;strokeColor=none;fillColor=none;" vertex="1" parent="1">
          <mxGeometry x="1455" y="668" width="30" height="30" as="geometry" />
        </mxCell>
        <mxCell id="vfDCYdOBtoVgsNpqTwvj-121" value="0" style="text;html=1;align=center;verticalAlign=middle;resizable=0;points=[];autosize=1;strokeColor=none;fillColor=none;" vertex="1" parent="1">
          <mxGeometry x="1455" y="598" width="30" height="30" as="geometry" />
        </mxCell>
        <mxCell id="vfDCYdOBtoVgsNpqTwvj-122" value="}" style="text;html=1;align=center;verticalAlign=middle;resizable=0;points=[];autosize=1;strokeColor=none;fillColor=none;" vertex="1" parent="1">
          <mxGeometry x="1515" y="898" width="30" height="30" as="geometry" />
        </mxCell>
        <mxCell id="vfDCYdOBtoVgsNpqTwvj-123" value="1" style="text;html=1;align=center;verticalAlign=middle;resizable=0;points=[];autosize=1;strokeColor=none;fillColor=none;" vertex="1" parent="1">
          <mxGeometry x="1605" y="928" width="30" height="30" as="geometry" />
        </mxCell>
        <mxCell id="vfDCYdOBtoVgsNpqTwvj-124" value="0" style="text;html=1;align=center;verticalAlign=middle;resizable=0;points=[];autosize=1;strokeColor=none;fillColor=none;" vertex="1" parent="1">
          <mxGeometry x="1795" y="928" width="30" height="30" as="geometry" />
        </mxCell>
        <mxCell id="vfDCYdOBtoVgsNpqTwvj-125" value="}}" style="text;html=1;align=center;verticalAlign=middle;resizable=0;points=[];autosize=1;strokeColor=none;fillColor=none;" vertex="1" parent="1">
          <mxGeometry x="1725" y="1068" width="30" height="30" as="geometry" />
        </mxCell>
        <mxCell id="vfDCYdOBtoVgsNpqTwvj-126" value="}" style="text;html=1;align=center;verticalAlign=middle;resizable=0;points=[];autosize=1;strokeColor=none;fillColor=none;" vertex="1" parent="1">
          <mxGeometry x="1505" y="608" width="30" height="30" as="geometry" />
        </mxCell>
      </root>
    </mxGraphModel>
  </diagram>
</mxfile>
